<svg width="1206.000000" height="285.000000" viewBox="0 0 1206 285" fill="none" xmlns="http://www.w3.org/2000/svg" xmlns:xlink="http://www.w3.org/1999/xlink">
	<desc>
			Created with Pixso.
	</desc>
	<defs/>
	<rect id="Rectangle 1" y="210.000000" rx="7.000000" width="972.000000" height="68.000000" fill="#EC976A" fill-opacity="1.000000"/>
	<path id="Vector 1" d="M967.55 82.78L967.66 81.92C967.73 81.34 968.58 80.24 970.22 78.61C971.86 76.99 973.73 75.74 975.82 74.88C977.92 74.02 979.83 73.14 981.56 72.24C983.29 71.34 984.81 70.6 986.1 69.99C987.4 69.39 989.31 68.68 991.83 67.86C994.35 67.05 998.07 66.02 1002.98 64.78C1007.89 63.54 1011.11 62.5 1012.64 61.65C1014.17 60.8 1016.28 59.97 1018.96 59.15C1021.63 58.33 1023.8 57.68 1025.43 57.19C1027.07 56.71 1029.07 56.07 1031.43 55.28C1033.78 54.5 1036.57 53.81 1039.84 53.24C1043.1 52.67 1046.31 52.1 1049.46 51.54C1052.62 50.99 1054.5 50.38 1055.1 49.72C1055.68 49.07 1057.29 48.41 1059.87 47.76C1062.46 47.11 1064.97 46.2 1067.39 45.02C1069.81 43.85 1072.52 43 1075.52 42.47C1078.52 41.94 1080.41 41.42 1081.17 40.91C1081.93 40.4 1082.9 39.69 1084.07 38.77C1085.25 37.85 1086.93 36.81 1089.12 35.64C1091.3 34.48 1092.68 33.65 1093.29 33.18C1093.89 32.7 1095.05 32.03 1096.75 31.18C1098.46 30.33 1100.18 29.56 1101.93 28.88C1103.68 28.19 1105.56 27.38 1107.59 26.46C1109.6 25.54 1111.64 24.71 1113.68 23.98C1115.75 23.24 1117.21 22.8 1118.07 22.65C1118.94 22.49 1119.53 22.28 1119.81 22C1120.11 21.73 1122.28 21.16 1126.31 20.3C1130.37 19.43 1133.29 18.84 1135.09 18.53C1136.89 18.21 1139.16 17.62 1141.9 16.77C1144.63 15.91 1146.44 15.13 1147.35 14.43C1148.26 13.73 1149.66 13.11 1151.56 12.57C1153.46 12.03 1155.57 11.55 1157.91 11.14C1160.25 10.73 1162.32 9.99 1164.16 8.92C1165.99 7.85 1167.18 7 1167.75 6.37C1168.31 5.74 1169.56 5.15 1171.47 4.59C1173.38 4.04 1174.72 3.7 1175.49 3.57C1176.27 3.44 1176.67 3.18 1176.69 2.8" stroke="#F4E4E4" stroke-opacity="1.000000" stroke-width="6.000000"/>
	<path id="Vector 2" d="M964.89 84.94L965.67 84.49C966.19 84.19 969.8 82.14 976.49 78.34C983.19 74.54 989.32 71.7 994.9 69.81C1000.47 67.92 1005.94 66.51 1011.31 65.56C1016.68 64.61 1021.98 63.68 1027.21 62.76C1032.44 61.83 1036.49 61.12 1039.34 60.62C1042.18 60.11 1044.39 59.45 1045.93 58.63C1047.49 57.81 1049 57.17 1050.47 56.71C1051.93 56.26 1053.98 55.42 1056.61 54.21C1059.23 53 1062.17 52.11 1065.42 51.54C1068.67 50.97 1071.44 50.48 1073.77 50.07C1076.07 49.66 1078.87 49.17 1082.14 48.59C1085.4 48.02 1088.57 47.46 1091.66 46.91C1094.75 46.37 1098.3 45.37 1102.32 43.91C1106.36 42.45 1110.18 41.41 1113.82 40.76C1117.48 40.12 1121.51 39.41 1125.92 38.63C1130.34 37.85 1133.97 37.21 1136.8 36.71C1139.64 36.21 1142.84 35.28 1146.39 33.9C1149.93 32.53 1152.86 31.64 1155.16 31.24C1157.46 30.83 1159.79 30.42 1162.16 30C1164.53 29.58 1166.23 29.02 1167.26 28.31C1168.29 27.6 1169.62 26.99 1171.24 26.49C1172.86 25.98 1174.18 25.3 1175.23 24.43C1176.27 23.56 1177.68 22.56 1179.44 21.43C1181.21 20.3 1183.04 19.57 1184.93 19.25" stroke="#DEBABA" stroke-opacity="1.000000" stroke-width="6.000000"/>
	<path id="Vector 3" d="M968.42 87.68L970.04 87.4C971.13 87.2 974.35 86.64 979.71 85.69C985.06 84.75 990.56 83.56 996.2 82.12C1001.85 80.68 1006.66 79.17 1010.64 77.58C1014.63 75.99 1017.37 74.72 1018.87 73.78C1020.38 72.84 1023.39 71.86 1027.91 70.86C1032.42 69.85 1035.99 69.11 1038.61 68.65C1041.23 68.19 1043.44 67.8 1045.27 67.48C1047.09 67.16 1049.27 66.99 1051.79 66.99C1054.31 66.99 1056.91 66.76 1059.56 66.29C1062.22 65.82 1065.12 65.53 1068.25 65.42C1071.39 65.31 1074.43 65 1077.42 64.47C1080.39 63.95 1082.44 63.49 1083.61 63.1C1084.77 62.71 1085.64 62.23 1086.23 61.67C1086.81 61.11 1088.39 60.49 1090.96 59.79C1093.52 59.09 1096.11 58.51 1098.74 58.05C1101.37 57.59 1103.91 57.14 1106.34 56.71C1108.78 56.28 1111.25 55.84 1113.74 55.4C1116.23 54.97 1118.85 54.5 1121.6 54.02C1124.35 53.53 1127.19 53.03 1130.16 52.51C1133.12 51.99 1135.43 51.58 1137.14 51.28C1138.82 50.98 1141.41 50.75 1144.87 50.58C1148.31 50.42 1151.31 50.11 1153.81 49.67C1156.32 49.22 1159.87 48.6 1164.43 47.8C1169.01 46.99 1172.43 46.38 1174.74 45.98C1177.04 45.57 1179.13 45.21 1181.01 44.87C1182.89 44.54 1184.6 44.02 1186.12 43.31C1187.65 42.59 1189.76 41.98 1192.47 41.48C1195.18 40.97 1197.59 40.55 1199.68 40.21" stroke="#CCABAB" stroke-opacity="1.000000" stroke-width="6.000000" stroke-linecap="round"/>
	<rect id="Rectangle 1" y="210.287933" rx="7.000000" width="972.000000" height="75.000000" transform="rotate(-10 0.000000 210.287933)" fill="#ECBF6A" fill-opacity="1.000000"/>
</svg>
