<svg width="1214.000000" height="71.000000" viewBox="0 0 1214 71" fill="none" xmlns="http://www.w3.org/2000/svg" xmlns:xlink="http://www.w3.org/1999/xlink">
	<desc>
			Created with Pixso.
	</desc>
	<defs/>
	<path id="Vector 1" d="M975 41.49L975.25 40.73C975.41 40.23 976.45 39.38 978.34 38.18C980.24 36.99 982.3 36.17 984.51 35.73C986.72 35.29 988.76 34.81 990.62 34.28C992.48 33.75 994.1 33.32 995.48 32.99C996.86 32.65 998.86 32.32 1001.5 31.99C1004.12 31.65 1007.96 31.32 1013.01 30.99C1018.06 30.65 1021.42 30.23 1023.07 29.71C1024.72 29.2 1026.93 28.78 1029.72 28.48C1032.5 28.17 1034.74 27.93 1036.44 27.75C1038.15 27.57 1040.22 27.32 1042.67 26.99C1045.12 26.65 1048 26.49 1051.31 26.49C1054.62 26.49 1057.88 26.49 1061.09 26.49C1064.29 26.49 1066.25 26.24 1066.94 25.75C1067.65 25.26 1069.32 24.92 1071.99 24.75C1074.66 24.57 1077.28 24.15 1079.87 23.49C1082.46 22.82 1085.27 22.49 1088.31 22.49C1091.37 22.49 1093.31 22.32 1094.16 21.99C1095 21.65 1096.07 21.17 1097.39 20.53C1098.71 19.89 1100.54 19.23 1102.9 18.53C1105.25 17.83 1106.76 17.32 1107.43 16.99C1108.11 16.65 1109.36 16.24 1111.18 15.75C1113.02 15.26 1114.86 14.85 1116.69 14.51C1118.54 14.17 1120.54 13.75 1122.68 13.24C1124.81 12.74 1126.97 12.32 1129.12 11.99C1131.27 11.65 1132.79 11.49 1133.67 11.49C1134.56 11.49 1135.17 11.39 1135.5 11.19C1135.82 10.99 1138.06 10.82 1142.19 10.69C1146.32 10.55 1149.31 10.49 1151.14 10.49C1152.97 10.49 1155.31 10.32 1158.15 9.99C1161 9.65 1162.92 9.24 1163.93 8.76C1164.93 8.28 1166.43 7.95 1168.4 7.76C1170.37 7.58 1172.53 7.49 1174.9 7.49C1177.27 7.49 1179.44 7.15 1181.43 6.49C1183.43 5.82 1184.76 5.25 1185.42 4.77C1186.09 4.3 1187.41 3.97 1189.39 3.77C1191.36 3.58 1192.74 3.49 1193.53 3.5C1194.31 3.5 1194.76 3.33 1194.86 3" stroke="#F4E4E4" stroke-opacity="1.000000" stroke-width="6.000000" stroke-linecap="round"/>
	<path id="Vector 2" d="M972 43L972.84 42.71C973.41 42.52 977.32 41.26 984.57 38.92C991.82 36.59 998.36 35.02 1004.18 34.21C1009.99 33.4 1015.62 33 1021.07 33C1026.52 33 1031.91 33 1037.22 33C1042.54 33 1046.65 33 1049.54 33C1052.43 33 1054.72 32.75 1056.39 32.26C1058.06 31.77 1059.65 31.43 1061.17 31.26C1062.69 31.08 1064.86 30.66 1067.65 30C1070.44 29.33 1073.5 29 1076.8 29C1080.1 29 1082.92 29 1085.27 29C1087.62 29 1090.46 29 1093.77 29C1097.09 29 1100.31 29 1103.44 29C1106.57 29 1110.26 28.66 1114.47 28C1118.68 27.33 1122.65 27 1126.35 27C1130.05 27 1134.14 27 1138.62 27C1143.11 27 1146.79 27 1149.67 27C1152.56 27 1155.86 26.66 1159.6 26C1163.32 25.33 1166.37 25 1168.69 25C1171.03 25 1173.4 25 1175.81 25C1178.21 25 1179.99 24.76 1181.13 24.29C1182.27 23.81 1183.68 23.48 1185.36 23.29C1187.04 23.09 1188.47 22.69 1189.65 22.08C1190.82 21.47 1192.39 20.79 1194.31 20.06C1196.26 19.33 1198.18 18.97 1200.11 18.98" stroke="#DEBABA" stroke-opacity="1.000000" stroke-width="6.000000" stroke-linecap="round"/>
	<rect id="Rectangle 1" y="3.000000" rx="7.000000" width="972.000000" height="68.000000" fill="#EC976A" fill-opacity="1.000000"/>
	<path id="Vector 3" d="M975 46L976.65 46C977.75 46 981.02 46 986.46 46C991.9 46 997.52 45.8 1003.33 45.4C1009.13 45 1014.13 44.41 1018.33 43.62C1022.53 42.83 1025.44 42.13 1027.1 41.53C1028.75 40.92 1031.88 40.53 1036.5 40.34C1041.12 40.15 1044.76 40.05 1047.42 40.05C1050.07 40.05 1052.34 40.05 1054.18 40.05C1056.04 40.05 1058.21 40.25 1060.68 40.65C1063.18 41.04 1065.77 41.24 1068.47 41.24C1071.17 41.24 1074.06 41.44 1077.18 41.84C1080.29 42.23 1083.35 42.43 1086.37 42.43C1089.39 42.43 1091.5 42.35 1092.71 42.18C1093.92 42.01 1094.86 41.72 1095.54 41.32C1096.21 40.91 1097.87 40.6 1100.52 40.38C1103.16 40.16 1105.81 40.05 1108.49 40.05C1111.15 40.05 1113.73 40.05 1116.19 40.05C1118.68 40.05 1121.18 40.05 1123.71 40.05C1126.24 40.05 1128.9 40.05 1131.68 40.05C1134.49 40.05 1137.38 40.05 1140.39 40.05C1143.39 40.05 1145.75 40.05 1147.47 40.05C1149.18 40.05 1151.77 40.25 1155.19 40.65C1158.64 41.04 1161.63 41.24 1164.18 41.24C1166.73 41.24 1170.32 41.24 1174.97 41.24C1179.6 41.24 1183.09 41.24 1185.42 41.24C1187.76 41.24 1189.88 41.24 1191.79 41.24C1193.69 41.24 1195.47 41.04 1197.1 40.65C1198.72 40.25 1200.91 40.04 1203.67 40.01C1206.42 39.99 1208.87 39.99 1211 40.01" stroke="#CCABAB" stroke-opacity="1.000000" stroke-width="6.000000" stroke-linecap="round"/>
</svg>
